HIERARCHY
ROOT Hips
{
	OFFSET	0.00	0.00	0.00
	CHANNELS 6 Xposition Yposition Zposition Zrotation Xrotation Yrotation
	JOINT LeftUpLeg
	{
		OFFSET	 0.126116	-0.014019	-0.065224
		CHANNELS 3 Zrotation Xrotation Yrotation
		JOINT LeftLeg
		{
			OFFSET	 0.000000	 0.000000	 0.569914
			CHANNELS 3 Zrotation Xrotation Yrotation
			JOINT LeftFoot
			{
				OFFSET	 0.000000	 0.000000	 0.544423
				CHANNELS 3 Zrotation Xrotation Yrotation
				JOINT LeftToeBase
				{
					OFFSET	 0.000000	 0.000000	 0.207117
					CHANNELS 3 Zrotation Xrotation Yrotation
					End Site
					{
						OFFSET	 0.000000	 0.000000	 0.207117
					}
				}
			}
		}
	}
	JOINT RightUpLeg
	{
		OFFSET	-0.124023	-0.008373	-0.065224
		CHANNELS 3 Zrotation Xrotation Yrotation
		JOINT RightLeg
		{
			OFFSET	 0.000000	 0.000000	 0.570047
			CHANNELS 3 Zrotation Xrotation Yrotation
			JOINT RightFoot
			{
				OFFSET	 0.000000	 0.000000	 0.544354
				CHANNELS 3 Zrotation Xrotation Yrotation
				JOINT RightToeBase
				{
					OFFSET	 0.000000	 0.000000	 0.207540
					CHANNELS 3 Zrotation Xrotation Yrotation
					End Site
					{
						OFFSET	 0.000000	 0.000000	 0.207540
					}
				}
			}
		}
	}
	JOINT Spine
	{
		OFFSET	 0.000184	-0.007763	 0.117403
		CHANNELS 3 Zrotation Xrotation Yrotation
		JOINT Spine1
		{
			OFFSET	 0.000000	 0.000000	 0.137269
			CHANNELS 3 Zrotation Xrotation Yrotation
			JOINT Spine2
			{
				OFFSET	 0.000000	 0.000000	 0.156879
				CHANNELS 3 Zrotation Xrotation Yrotation
				JOINT LeftShoulder
				{
					OFFSET	 0.080501	-0.002496	 0.160144
					CHANNELS 3 Zrotation Xrotation Yrotation
					JOINT LeftArm
					{
						OFFSET	 0.000000	 0.000000	 0.164363
						CHANNELS 3 Zrotation Xrotation Yrotation
						JOINT LeftForeArm
						{
							OFFSET	 0.000000	 0.000000	 0.364576
							CHANNELS 3 Zrotation Xrotation Yrotation
							JOINT LeftHand
							{
								OFFSET	 0.000000	 0.000000	 0.360812
								CHANNELS 3 Zrotation Xrotation Yrotation
								JOINT LeftHandIndex1
								{
									OFFSET	 0.000000	 0.000000	 0.086006
									CHANNELS 3 Zrotation Xrotation Yrotation
									JOINT LeftHandIndex2
									{
										OFFSET	 0.000000	 0.000000	 0.047236
										CHANNELS 3 Zrotation Xrotation Yrotation
										JOINT LeftHandIndex3
										{
											OFFSET	-0.004284	-0.000551	 0.038166
											CHANNELS 3 Zrotation Xrotation Yrotation
											End Site
											{
												OFFSET	-0.004284	-0.000551	 0.038166
											}
										}
									}
								}
							}
						}
					}
				}
				JOINT Neck
				{
					OFFSET	 0.000000	 0.000000	 0.176489
					CHANNELS 3 Zrotation Xrotation Yrotation
					JOINT Head
					{
						OFFSET	 0.000000	-0.001747	 0.077940
						CHANNELS 3 Zrotation Xrotation Yrotation
						End Site
						{
							OFFSET	 0.000000	-0.001747	 0.077940
						}
					}
				}
				JOINT RightShoulder
				{
					OFFSET	-0.080363	 0.000306	 0.159706
					CHANNELS 3 Zrotation Xrotation Yrotation
					JOINT RightArm
					{
						OFFSET	 0.000000	 0.000000	 0.164196
						CHANNELS 3 Zrotation Xrotation Yrotation
						JOINT RightForeArm
						{
							OFFSET	 0.000000	 0.000000	 0.365611
							CHANNELS 3 Zrotation Xrotation Yrotation
							JOINT RightHand
							{
								OFFSET	 0.000000	 0.000000	 0.360648
								CHANNELS 3 Zrotation Xrotation Yrotation
								JOINT RightHandIndex1
								{
									OFFSET	 0.000000	 0.000000	 0.069977
									CHANNELS 3 Zrotation Xrotation Yrotation
									JOINT RightHandIndex2
									{
										OFFSET	 0.000000	 0.000000	 0.052305
										CHANNELS 3 Zrotation Xrotation Yrotation
										JOINT RightHandIndex3
										{
											OFFSET	 0.009002	-0.000782	 0.042196
											CHANNELS 3 Zrotation Xrotation Yrotation
											End Site
											{
												OFFSET	 0.009002	-0.000782	 0.042196
											}
										}
									}
								}
							}
						}
					}
				}
			}
		}
	}
}
MOTION
Frames:    7
Frame Time: 0.03333334
 0.000298	 0.019717	 1.271263	-0.002774	 0.004066	 0.174400	 8.018588	-1.874562	 176.291800	 1.484317	-11.031700	-0.642611	-8.985652	 70.033000	 3.076270	-2.385833	 28.452760	 0.000004	-8.190524	-1.898629	-176.614800	-1.474674	-10.674530	 0.609885	 8.551827	 69.733650	-2.808188	 2.384658	 28.388730	 0.000004	-10.650670	 2.630516	 0.287730	-2.152027	 3.984797	-0.785087	 6.513617	-4.909678	 1.429181	-91.776080	 78.527430	 179.999900	 48.618890	 36.544360	-60.478190	-11.259340	 0.300480	-2.191663	-32.043500	-13.586970	-4.856664	-2.635965	 4.993658	 6.788941	-5.165319	 0.784187	 3.516649	-5.225038	 0.466231	 0.424329	-0.000002	-3.783157	-0.089647	 6.324477	 4.441411	-0.245512	 89.782160	 78.203920	 179.999900	-63.646870	 41.743440	 60.703870	 11.004540	 0.324440	 2.206318	 32.481010	-14.269280	 9.545028	 6.112037	 4.509576	-0.364401	 4.968462	 1.518543	-9.347576	 5.168945	 0.703820	 2.021906
 0.000301	 0.019720	 1.271425	-0.002258	 0.004963	 0.174070	 8.612115	-1.908981	 176.255000	 1.484549	-11.011140	-0.641382	-8.956741	 69.982540	 3.047221	-2.385833	 28.452760	 0.000004	-8.784329	-1.930169	-176.579700	-1.474872	-10.655660	 0.608782	 8.520712	 69.686320	-2.775185	 2.384658	 28.388730	 0.000004	-16.087170	 2.533841	 0.271161	-2.120341	 4.319478	-0.748766	 6.415371	-5.346992	 1.435817	-91.776150	 78.527420	 180.000000	 48.660440	 36.489280	-60.221020	-13.963880	 0.559399	-3.704911	-33.611770	-15.107000	-5.310275	-2.635965	 4.993658	 6.788941	-5.165319	 0.784187	 3.516649	-5.225038	 0.466231	 0.424329	-0.000002	-3.783157	-0.089647	 6.211337	 4.250844	-0.230758	 89.782260	 78.203900	 179.999800	-63.001620	 41.311930	 61.978720	 13.290900	 0.581016	 3.720779	 34.121790	-15.929930	 9.912411	 6.112037	 4.509576	-0.364401	 4.968462	 1.518543	-9.347576	 5.168945	 0.703820	 2.021906
 0.000297	 0.019728	 1.271595	-0.001675	 0.005906	 0.171366	 9.242723	-1.942133	 176.218400	 1.484881	-10.982130	-0.639650	-8.923104	 69.925350	 3.013409	-2.385833	 28.452760	 0.000004	-9.414456	-1.966501	-176.541100	-1.475041	-10.640020	 0.607866	 8.487872	 69.638460	-2.740095	 2.384658	 28.388730	 0.000004	-21.440230	 2.433160	 0.252652	-2.063290	 4.668051	-0.702887	 6.239875	-5.807297	 1.425060	-91.776260	 78.527470	-180.000000	 48.692660	 36.411250	-59.918290	-16.736210	 0.978363	-5.244183	-35.256970	-16.615750	-5.865876	-2.635965	 4.993658	 6.788941	-5.165319	 0.784187	 3.516649	-5.225038	 0.466231	 0.424329	-0.000002	-3.783157	-0.089647	 6.022943	 4.060159	-0.213701	 89.782200	 78.203870	 179.999900	-61.119580	 40.200950	 60.394580	 15.265530	 4.062120	 10.355340	 35.965370	-17.753590	 10.326040	 6.112037	 4.509576	-0.364401	 4.968462	 1.518543	-9.347576	 5.168945	 0.703820	 2.021906
 0.000283	 0.019747	 1.271796	-0.000942	 0.006983	 0.164771	 10.014080	-1.978723	 176.177000	 1.485373	-10.938770	-0.637063	-8.863125	 69.852620	 2.965694	-2.385833	 28.452760	 0.000004	-10.160170	-2.014268	-176.493100	-1.475162	-10.629070	 0.607227	 8.463275	 69.584850	-2.701415	 2.384658	 28.388730	 0.000004	-27.183170	 2.316269	 0.230027	-1.962786	 5.072903	-0.639131	 5.932341	-6.348298	 1.386146	-91.776250	 78.527430	-180.000000	 48.717620	 36.294180	-59.526810	-19.926970	 1.650668	-6.982877	-37.207260	-18.257640	-6.617610	-2.635965	 4.993658	 6.788941	-5.165319	 0.784187	 3.516649	-5.225038	 0.466231	 0.424329	-0.000002	-3.783157	-0.089647	 5.705151	 3.848563	-0.191851	 89.782110	 78.203900	 180.000000	-58.522810	 38.757350	 59.847920	 16.934080	 8.142388	 16.975280	 38.165110	-19.857430	 10.911510	 6.112037	 4.509576	-0.364401	 4.968462	 1.518543	-9.347576	 5.168945	 0.703820	 2.021906
 0.000256	 0.019775	 1.272000	-0.000169	 0.007998	 0.152963	 10.851150	-2.012149	 176.136800	 1.486034	-10.879800	-0.633545	-8.812074	 69.766490	 2.912842	-2.385833	 28.452760	 0.000004	-10.996830	-2.074727	-176.436500	-1.475174	-10.628010	 0.607166	 8.419778	 69.531790	-2.655839	 2.384658	 28.388730	 0.000004	-32.465960	 2.194586	 0.205893	-1.811586	 5.494921	-0.559866	 5.471992	-6.919530	 1.308278	-91.776230	 78.527450	-180.000000	 48.725240	 36.141820	-59.062760	-23.247540	 2.573503	-8.748282	-39.311400	-19.809570	-7.521103	-2.635965	 4.993658	 6.788941	-5.165319	 0.784187	 3.516649	-5.225038	 0.466231	 0.424329	-0.000002	-3.783157	-0.089647	 5.241918	 3.639342	-0.166664	 89.782070	 78.203890	-180.000000	-55.932190	 37.310630	 63.023220	 18.661370	 9.950884	 19.366070	 40.219690	-22.058840	 11.517910	 6.112037	 4.509576	-0.364401	 4.968462	 1.518543	-9.347576	 5.168945	 0.703820	 2.021906
 0.000225	 0.019794	 1.272057	 0.000411	 0.008644	 0.139804	 11.536930	-2.035551	 176.107500	 1.486656	-10.824500	-0.630245	-8.767699	 69.692490	 2.866722	-2.385833	 28.452760	 0.000004	-11.681430	-2.130561	-176.388000	-1.475068	-10.637720	 0.607732	 8.385363	 69.493960	-2.619761	 2.384658	 28.388730	 0.000004	-35.835670	 2.102591	 0.187517	-1.656983	 5.814689	-0.489661	 5.003378	-7.357488	 1.216329	-91.776200	 78.527490	-180.000000	 48.713250	 35.999240	-58.660270	-25.789600	 3.434612	-10.057480	-40.978070	-20.846030	-8.286374	-2.635965	 4.993658	 6.788941	-5.165319	 0.784187	 3.516649	-5.225038	 0.466231	 0.424329	-0.000002	-3.783157	-0.089647	 4.778902	 3.488510	-0.145626	 89.782060	 78.203920	-180.000000	-53.379810	 35.921170	 65.285890	 19.387900	 11.921150	 21.896700	 41.457190	-23.788420	 11.863390	 6.112037	 4.509576	-0.364401	 4.968462	 1.518543	-9.347576	 5.168945	 0.703820	 2.021906
 0.000184	 0.019814	 1.271999	 0.000914	 0.009062	 0.121986	 12.284250	-2.057777	 176.079100	 1.487387	-10.759150	-0.626350	-8.717237	 69.609340	 2.814208	-2.385833	 28.452760	 0.000004	-12.426290	-2.198357	-176.333100	-1.474828	-10.660220	 0.609047	 8.349529	 69.459010	-2.582093	 2.384658	 28.388730	 0.000004	-38.422120	 2.012148	 0.169561	-1.458323	 6.130334	-0.409258	 4.403667	-7.794032	 1.087189	-91.776140	 78.527470	 180.000000	 48.688500	 35.830020	-58.217110	-28.465070	 4.444386	-11.336560	-42.603770	-21.701790	-9.088976	-2.635965	 4.993658	 6.788941	-5.165319	 0.784187	 3.516649	-5.225038	 0.466231	 0.424329	-0.000002	-3.783157	-0.089647	 4.194452	 3.346206	-0.122586	 89.782160	 78.203900	 179.999900	-50.421730	 34.321060	 68.169530	 19.660770	 13.575390	 23.917940	 42.264790	-25.606390	 11.996210	 6.112037	 4.509576	-0.364401	 4.968462	 1.518543	-9.347576	 5.168945	 0.703820	 2.021906
